name rise42.5664peak47.7979fall81.9185.mot
datacolumns 19
datarows 32
range 10.98662200000000 11.03829400000000
endheader
time	ground_force1_vx	ground_force1_vy	ground_force1_vz	ground_force1_px	ground_force1_py	ground_force1_pz	ground_force2_vx	ground_force2_vy	ground_force2_vz	ground_force2_px	ground_force2_py	ground_force2_pz	ground_torque1_x	ground_torque1_y	ground_torque1_z	ground_torque2_x	ground_torque2_y	ground_torque2_z	
10.98662200000000	-36.10958800000000	796.25067100000001	49.53973100000000	0.07441300000000	0.00000000000000	0.09602300000000	-5.65545000000000	21.23669000000000	4.41880000000000	0.00000000000000	0.00000000000000	0.00000000000000	0.00000000000000	13.57188200000000	0.00000000000000	0.00000000000000	1.05341300000000	0.00000000000000	
10.98828600000000	-36.34334200000000	793.87264800000003	49.35758300000000	0.07378700000000	0.00000000000000	0.09594400000000	-6.84499900000000	26.97432000000000	5.46998300000000	0.30067800000000	0.00000000000000	-0.06819400000000	0.00000000000000	13.48002300000000	0.00000000000000	0.00000000000000	2.50206900000000	0.00000000000000	
10.98996000000000	-36.59924000000000	791.41238099999998	49.15532700000000	0.07316000000000	0.00000000000000	0.09586100000000	-8.00567700000000	33.04942700000000	6.53944200000000	0.30363400000000	0.00000000000000	-0.06872400000000	0.00000000000000	13.39124800000000	0.00000000000000	0.00000000000000	3.04129300000000	0.00000000000000	
10.99162300000000	-36.87775400000000	788.86946300000000	48.93280700000000	0.07253100000000	0.00000000000000	0.09577400000000	-9.09407600000000	39.33508000000000	7.59575000000000	0.30637200000000	0.00000000000000	-0.06921400000000	0.00000000000000	13.30573500000000	0.00000000000000	0.00000000000000	3.58913800000000	0.00000000000000	
10.99329200000000	-37.17928600000000	786.24337000000003	48.68989600000000	0.07190100000000	0.00000000000000	0.09568300000000	-10.07104600000000	45.70844300000000	8.60950100000000	0.30892100000000	0.00000000000000	-0.06967000000000	0.00000000000000	13.22364800000000	0.00000000000000	0.00000000000000	4.13199200000000	0.00000000000000	
10.99495500000000	-37.50416200000000	783.53345200000001	48.42650300000000	0.07126900000000	0.00000000000000	0.09558900000000	-10.90427800000000	52.05995400000000	9.55529600000000	0.31130300000000	0.00000000000000	-0.07009700000000	0.00000000000000	13.14514300000000	0.00000000000000	0.00000000000000	4.65758700000000	0.00000000000000	
10.99662000000000	-37.85262900000000	780.73893399999997	48.14256600000000	0.07063600000000	0.00000000000000	0.09549000000000	-11.57003300000000	58.30033100000000	10.41317200000000	0.31354000000000	0.00000000000000	-0.07049900000000	0.00000000000000	13.07035900000000	0.00000000000000	0.00000000000000	5.15572600000000	0.00000000000000	
10.99828600000000	-38.22485200000000	777.85891300000003	47.83805500000000	0.07000300000000	0.00000000000000	0.09538800000000	-12.05394900000000	64.36492000000000	11.16938600000000	0.31564600000000	0.00000000000000	-0.07088000000000	0.00000000000000	12.99942200000000	0.00000000000000	0.00000000000000	5.61875500000000	0.00000000000000	
10.99996100000000	-38.62091000000000	774.89236000000005	47.51297700000000	0.06936900000000	0.00000000000000	0.09528200000000	-12.35094700000000	70.21533800000000	11.81657400000000	0.31763500000000	0.00000000000000	-0.07124200000000	0.00000000000000	12.93244500000000	0.00000000000000	0.00000000000000	6.04174200000000	0.00000000000000	
11.00162600000000	-39.04079700000000	771.83811800000001	47.16736700000000	0.06873400000000	0.00000000000000	0.09517300000000	-12.46441200000000	75.83869700000000	12.35335900000000	0.31951800000000	0.00000000000000	-0.07158800000000	0.00000000000000	12.86952300000000	0.00000000000000	0.00000000000000	6.42241300000000	0.00000000000000	
11.00329100000000	-39.48441500000000	768.69490199999996	46.80129500000000	0.06809900000000	0.00000000000000	0.09505900000000	-12.40479500000000	81.24484600000000	12.78353400000000	0.32130400000000	0.00000000000000	-0.07192100000000	0.00000000000000	12.81073500000000	0.00000000000000	0.00000000000000	6.76087700000000	0.00000000000000	
11.00495800000000	-39.95157300000000	765.46130600000004	46.41486500000000	0.06746300000000	0.00000000000000	0.09494200000000	-12.18789400000000	86.46223000000001	13.11496300000000	0.32300200000000	0.00000000000000	-0.07224200000000	0.00000000000000	12.75614500000000	0.00000000000000	0.00000000000000	7.05920400000000	0.00000000000000	
11.00662300000000	-40.44198500000000	762.13580000000002	46.00821100000000	0.06682800000000	0.00000000000000	0.09482100000000	-11.83297500000000	91.53292800000000	13.35833900000000	0.32461800000000	0.00000000000000	-0.07255200000000	0.00000000000000	12.70579900000000	0.00000000000000	0.00000000000000	7.32091600000000	0.00000000000000	
11.00829200000000	-40.95526700000000	758.71673799999996	45.58150300000000	0.06619300000000	0.00000000000000	0.09469700000000	-11.36093900000000	96.50743400000000	13.52592100000000	0.32615700000000	0.00000000000000	-0.07285300000000	0.00000000000000	12.65972300000000	0.00000000000000	0.00000000000000	7.55044400000000	0.00000000000000	
11.00995900000000	-41.49093800000000	755.20236399999999	45.13494200000000	0.06555700000000	0.00000000000000	0.09457000000000	-10.79266900000000	101.43964800000001	13.63037200000000	0.32762400000000	0.00000000000000	-0.07314700000000	0.00000000000000	12.61792500000000	0.00000000000000	0.00000000000000	7.75261100000000	0.00000000000000	
11.01163200000000	-42.04841500000000	751.59081400000002	44.66876000000000	0.06492300000000	0.00000000000000	0.09443900000000	-10.14765300000000	106.38244299999999	13.68375300000000	0.32902400000000	0.00000000000000	-0.07343300000000	0.00000000000000	12.58039600000000	0.00000000000000	0.00000000000000	7.93216700000000	0.00000000000000	
11.01328800000000	-42.62701100000000	747.88012100000003	44.18322400000000	0.06428800000000	0.00000000000000	0.09430400000000	-9.44295300000000	111.38405000000000	13.69674200000000	0.33035900000000	0.00000000000000	-0.07371300000000	0.00000000000000	12.54710400000000	0.00000000000000	0.00000000000000	8.09341300000000	0.00000000000000	
11.01496100000000	-43.22593900000000	744.06822899999997	43.67863000000000	0.06365400000000	0.00000000000000	0.09416700000000	-8.69252900000000	116.48540400000000	13.67809100000000	0.33163300000000	0.00000000000000	-0.07398800000000	0.00000000000000	12.51800100000000	0.00000000000000	0.00000000000000	8.23992600000000	0.00000000000000	
11.01662400000000	-43.84430500000000	740.15299500000003	43.15530900000000	0.06302000000000	0.00000000000000	0.09402600000000	-7.90691800000000	121.71848199999999	13.63432700000000	0.33284700000000	0.00000000000000	-0.07425800000000	0.00000000000000	12.49301600000000	0.00000000000000	0.00000000000000	8.37438600000000	0.00000000000000	
11.01829100000000	-44.48111400000000	736.13219900000001	42.61361900000000	0.06238700000000	0.00000000000000	0.09388300000000	-7.09321900000000	127.10557600000000	13.56966600000000	0.33400400000000	0.00000000000000	-0.07452400000000	0.00000000000000	12.47205900000000	0.00000000000000	0.00000000000000	8.49850200000000	0.00000000000000	
11.01995500000000	-45.13526400000000	732.00355500000001	42.05395200000000	0.06175400000000	0.00000000000000	0.09373600000000	-6.25533500000000	132.65939900000001	13.48612200000000	0.33510500000000	0.00000000000000	-0.07478600000000	0.00000000000000	12.45501900000000	0.00000000000000	0.00000000000000	8.61302900000000	0.00000000000000	
11.02162100000000	-45.80554900000000	727.76471900000001	41.47673000000000	0.06112200000000	0.00000000000000	0.09358700000000	-5.39440900000000	138.38384500000001	13.38375200000000	0.33615200000000	0.00000000000000	-0.07504400000000	0.00000000000000	12.44176500000000	0.00000000000000	0.00000000000000	8.71785300000000	0.00000000000000	
11.02329200000000	-46.49066100000000	723.41330300000004	40.88240200000000	0.06049000000000	0.00000000000000	0.09343500000000	-4.50938300000000	144.27524700000001	13.26101200000000	0.33714600000000	0.00000000000000	-0.07530000000000	0.00000000000000	12.43214800000000	0.00000000000000	0.00000000000000	8.81212400000000	0.00000000000000	
11.02495500000000	-47.18918800000000	718.94688099999996	40.27144900000000	0.05985900000000	0.00000000000000	0.09328000000000	-3.59761000000000	150.32392600000000	13.11516100000000	0.33808700000000	0.00000000000000	-0.07555400000000	0.00000000000000	12.42599500000000	0.00000000000000	0.00000000000000	8.89443300000000	0.00000000000000	
11.02662200000000	-47.89961900000000	714.36300900000003	39.64438000000000	0.05922700000000	0.00000000000000	0.09312400000000	-2.65547800000000	156.51588300000000	12.94268100000000	0.33897700000000	0.00000000000000	-0.07580500000000	0.00000000000000	12.42311600000000	0.00000000000000	0.00000000000000	8.96298800000000	0.00000000000000	
11.02828900000000	-48.62034300000000	709.65923299999997	39.00173000000000	0.05859600000000	0.00000000000000	0.09296400000000	-1.67898200000000	162.83446200000000	12.73968400000000	0.33981500000000	0.00000000000000	-0.07605300000000	0.00000000000000	12.42330100000000	0.00000000000000	0.00000000000000	9.01579700000000	0.00000000000000	
11.02995800000000	-49.34965200000000	704.83310700000004	38.34406300000000	0.05796400000000	0.00000000000000	0.09280300000000	-0.66422200000000	169.26187899999999	12.50226600000000	0.34060200000000	0.00000000000000	-0.07630000000000	0.00000000000000	12.42632100000000	0.00000000000000	0.00000000000000	9.05083400000000	0.00000000000000	
11.03162200000000	-50.08574600000000	699.88220600000000	37.67196800000000	0.05733200000000	0.00000000000000	0.09264000000000	0.39219900000000	175.78053700000001	12.22681100000000	0.34133900000000	0.00000000000000	-0.07654600000000	0.00000000000000	12.43192900000000	0.00000000000000	0.00000000000000	9.06618100000000	0.00000000000000	
11.03329300000000	-50.82673300000000	694.80414399999995	36.98605900000000	0.05669900000000	0.00000000000000	0.09247500000000	1.49288800000000	182.37404699999999	11.91020600000000	0.34202500000000	0.00000000000000	-0.07678900000000	0.00000000000000	12.43985900000000	0.00000000000000	0.00000000000000	9.06013400000000	0.00000000000000	
11.03495900000000	-51.57063600000000	689.59658800000000	36.28697600000000	0.05606500000000	0.00000000000000	0.09230900000000	2.63949100000000	189.02797300000000	11.55000100000000	0.34266100000000	0.00000000000000	-0.07703100000000	0.00000000000000	12.44982900000000	0.00000000000000	0.00000000000000	9.03128600000000	0.00000000000000	
11.03662500000000	-52.31539300000000	684.25728200000003	35.57538100000000	0.05543000000000	0.00000000000000	0.09214100000000	3.83261100000000	195.73026500000000	11.14448300000000	0.34324700000000	0.00000000000000	-0.07727200000000	0.00000000000000	12.46154100000000	0.00000000000000	0.00000000000000	8.97857400000000	0.00000000000000	
11.03829400000000	-53.05886500000000	678.78405799999996	34.85195800000000	0.05479400000000	0.00000000000000	0.09197100000000	5.07182500000000	202.47143900000000	10.69269300000000	0.34378200000000	0.00000000000000	-0.07751100000000	0.00000000000000	12.47467900000000	0.00000000000000	0.00000000000000	8.90129100000000	0.00000000000000	
